<svg width="20" height="20" viewBox="0 0 20 20" fill="none" xmlns="http://www.w3.org/2000/svg">
<path fill-rule="evenodd" clip-rule="evenodd" d="M13.4391 0.625303C16.9431 1.92971 19.5182 5.14241 19.9012 9H15.93C15.7685 5.11917 14.6764 2.39579 13.4447 0.627428L13.4391 0.625303ZM9.95068 0C6.90793 1.44197 6.06194 6.08485 5.9291 9H13.9282C13.7893 5.95156 12.924 1.64755 9.95068 0ZM6.39696 0.649837C5.17177 2.41872 4.08813 5.13553 3.92722 9H0C0.380624 5.16638 2.92628 1.96966 6.39696 0.649837ZM13.4393 19.3747C16.9433 18.0703 19.5185 14.8576 19.9015 11H15.9303C15.7687 14.8808 14.6766 17.6042 13.445 19.3726L13.4393 19.3747ZM9.95093 20C6.90817 18.558 6.06218 13.9152 5.92934 11H13.9284C13.7895 14.0484 12.9243 18.3525 9.95093 20ZM6.39721 19.3502C5.17201 17.5813 4.08837 14.8645 3.92747 11H0.000244141C0.380868 14.8336 2.92652 18.0303 6.39721 19.3502Z" fill="#131313"/>
</svg>
